<?xml version="1.0" encoding="UTF-8" standalone="no"?>
<!DOCTYPE svg PUBLIC "-//W3C//DTD SVG 1.1//EN" "http://www.w3.org/Graphics/SVG/1.1/DTD/svg11.dtd">
<svg width="100%" height="100%" viewBox="0 0 60 60" version="1.1" xmlns="http://www.w3.org/2000/svg" xmlns:xlink="http://www.w3.org/1999/xlink" xml:space="preserve" xmlns:serif="http://www.serif.com/" style="fill-rule:evenodd;clip-rule:evenodd;stroke-linecap:round;stroke-linejoin:round;stroke-miterlimit:10;">
    <g id="color" transform="matrix(1,0,0,1,-6,-6)">
        <rect x="12" y="12" width="48" height="48" style="fill:rgb(165,121,57);"/>
        <rect x="18" y="18" width="36" height="36" style="fill:rgb(146,211,245);"/>
        <circle cx="26" cy="30" r="4" style="fill:rgb(252,234,43);"/>
        <path d="M50,35C47.104,34.146 43.721,27.011 42,27C37.792,26.972 35.746,32.836 31,36C28,38 27.626,38.85 25,40C22.718,41 22,43 21.75,43.641C21.447,44.417 20.275,46.162 20.792,46.75C22,48.125 23.25,48.25 25.792,47.468C27.939,46.807 30.769,42.661 32.667,41.25C34.938,39.563 37.313,38.75 40.75,39.25C43.23,39.611 47.41,42.422 48.563,42.313C49.875,42.188 46.969,39.75 48.031,38.125C49.164,36.393 50.942,38.278 51.667,37.042C51.984,36.5 50.632,35.186 50,35Z" style="fill:rgb(92,158,49);fill-rule:nonzero;stroke:rgb(92,158,49);stroke-width:2px;"/>
    </g>
    <g id="line" transform="matrix(1,0,0,1,-6,-6)">
        <rect x="12" y="12" width="48" height="48" style="fill:none;stroke:black;stroke-width:2px;"/>
        <rect x="18" y="18" width="36" height="36" style="fill:none;stroke:black;stroke-width:2px;"/>
        <circle cx="26" cy="30" r="4" style="fill:none;stroke:black;stroke-width:2px;"/>
        <rect x="18" y="18" width="36" height="36" style="fill:none;stroke:black;stroke-width:2px;"/>
        <path d="M22,43C22.526,41.98 22.728,41.033 25,40C27.61,38.814 28,38 31,36C35.746,32.836 37.792,26.972 42,27C43.721,27.011 47,34 50,35" style="fill:none;fill-rule:nonzero;stroke:black;stroke-width:2px;"/>
    </g>
</svg>
